<svg width="37" height="32" viewBox="0 0 37 32" fill="none" xmlns="http://www.w3.org/2000/svg">
<path fill-rule="evenodd" clip-rule="evenodd" d="M20.852 4.48528C22.4432 2.89398 24.6015 2 26.852 2C29.1024 2 31.2607 2.89398 32.852 4.48528C34.4433 6.07658 35.3372 8.23484 35.3372 10.4853C35.3372 12.7357 34.4433 14.894 32.852 16.4853L30.6686 18.6686L18.6686 30.6686L6.66862 18.6686L4.48528 16.4853C2.89398 14.894 2 12.7357 2 10.4853C2 8.23484 2.89398 6.07658 4.48528 4.48528C6.07658 2.89398 8.23485 2 10.4853 2C12.7357 2 14.894 2.89398 16.4853 4.48528L18.6686 6.66861L20.852 4.48528Z" fill="#E5704B" stroke="#E5704B" stroke-width="2.5" stroke-linecap="round" stroke-linejoin="round"/>
</svg>
