<svg width="37" height="36" viewBox="0 0 37 36" fill="none" xmlns="http://www.w3.org/2000/svg">
<path fill-rule="evenodd" clip-rule="evenodd" d="M17.0686 3.25865C17.1838 2.89358 17.4123 2.57472 17.721 2.34838C18.0297 2.12203 18.4025 2 18.7853 2C19.1681 2 19.5409 2.12203 19.8496 2.34838C20.1583 2.57472 20.3868 2.89358 20.502 3.25865L23.602 12.792H33.602C33.9985 12.777 34.3889 12.8922 34.7138 13.12C35.0386 13.3479 35.2799 13.6758 35.4008 14.0537C35.5218 14.4316 35.5157 14.8387 35.3834 15.2127C35.2512 15.5868 35.0002 15.9073 34.6686 16.1253L26.552 22.0087L29.652 31.5587C29.7746 31.9224 29.7777 32.3159 29.6608 32.6815C29.5439 33.0472 29.3132 33.3659 29.0023 33.5911C28.6915 33.8164 28.3168 33.9363 27.9329 33.9335C27.549 33.9306 27.1761 33.8051 26.8686 33.5753L18.7353 27.6253L10.6186 33.5253C10.3112 33.7551 9.93824 33.8806 9.55438 33.8835C9.17051 33.8863 8.79578 33.7664 8.48492 33.5411C8.17406 33.3159 7.94335 32.9972 7.82648 32.6315C7.70961 32.2659 7.7127 31.8724 7.8353 31.5087L10.9353 21.9587L2.81864 16.0753C2.48711 15.8573 2.23606 15.5368 2.10384 15.1627C1.97162 14.7887 1.9655 14.3816 2.08643 14.0037C2.20735 13.6258 2.44867 13.2979 2.7735 13.07C3.09833 12.8422 3.48882 12.727 3.8853 12.742H13.8853L17.0686 3.25865Z" fill="#FDBC15" stroke="#FDBC15" stroke-width="2.5" stroke-linecap="round" stroke-linejoin="round"/>
</svg>
