<svg width="32" height="37" viewBox="0 0 32 37" fill="none" xmlns="http://www.w3.org/2000/svg">
<path d="M12 2H5.33333C3.49238 2 2 3.49238 2 5.33333V12C2 13.8409 3.49238 15.3333 5.33333 15.3333H12C13.8409 15.3333 15.3333 13.8409 15.3333 12V5.33333C15.3333 3.49238 13.8409 2 12 2Z" stroke="#E5704B" stroke-width="2.5" stroke-linecap="round" stroke-linejoin="round"/>
<path d="M12 22H5.33333C3.49238 22 2 23.4924 2 25.3333V32C2 33.841 3.49238 35.3333 5.33333 35.3333H12C13.8409 35.3333 15.3333 33.841 15.3333 32V25.3333C15.3333 23.4924 13.8409 22 12 22Z" stroke="#E5704B" stroke-width="2.5" stroke-linecap="round" stroke-linejoin="round"/>
<path d="M30.3333 25.3333H20.3333" stroke="#E5704B" stroke-width="2.5" stroke-linecap="round" stroke-linejoin="round"/>
<path d="M27 32H20.3333" stroke="#E5704B" stroke-width="2.5" stroke-linecap="round" stroke-linejoin="round"/>
<path d="M27 12H20.3333" stroke="#E5704B" stroke-width="2.5" stroke-linecap="round" stroke-linejoin="round"/>
<path d="M30.3333 5.33333H20.3333" stroke="#E5704B" stroke-width="2.5" stroke-linecap="round" stroke-linejoin="round"/>
</svg>
