<svg width="36" height="32" viewBox="0 0 36 32" fill="none" xmlns="http://www.w3.org/2000/svg">
<path fill-rule="evenodd" clip-rule="evenodd" d="M20.1835 4.15008C21.7748 2.55878 23.9331 1.66479 26.1835 1.66479C28.4339 1.66479 30.5922 2.55878 32.1835 4.15008C33.7748 5.74137 34.6688 7.89964 34.6688 10.1501C34.6688 12.4005 33.7748 14.5588 32.1835 16.1501L30.0002 18.3334L18.0002 30.3334L6.00016 18.3334L3.81682 16.1501C2.22553 14.5588 1.33154 12.4005 1.33154 10.1501C1.33154 7.89964 2.22553 5.74137 3.81682 4.15008C5.40812 2.55878 7.56639 1.66479 9.81683 1.66479C12.0673 1.66479 14.2255 2.55878 15.8168 4.15008L18.0002 6.33341L20.1835 4.15008Z" stroke="#151515" stroke-width="2.5" stroke-linecap="round" stroke-linejoin="round"/>
</svg>
